<?xml version="1.0" encoding="UTF-8"?>
<svg id="Layer_2" data-name="Layer 2" xmlns="http://www.w3.org/2000/svg" viewBox="0 0 164.83 136.67">
  <defs>
    <style>
      .cls-1 {
        fill: #86878e;
      }

      .cls-2 {
        fill: #d4dcf8;
      }
    </style>
  </defs>
  <g id="Layer_5" data-name="Layer 5">
    <g>
      <path class="cls-1" d="M157.08,24.09c-1.11-1.87-2.34-3.66-3.68-5.37-1.35-1.71-2.8-3.33-4.36-4.85-1.56-1.51-3.22-2.92-4.97-4.22-1.74-1.3-3.57-2.47-5.47-3.53-3.51-1.89-7.2-3.31-11.06-4.25-.96-.26-1.91-.49-2.88-.69-.96-.2-1.93-.37-2.9-.51-.98-.14-1.96-.25-2.94-.33-.98-.08-1.96-.13-2.94-.15-.99-.02-1.97-.01-2.96.03-.98.04-1.96.1-2.94.2s-1.96.23-2.93.39c-.97.16-1.94.34-2.9.56-.96.22-1.91.46-2.85.74-.95.27-1.89.57-2.81.9-.93.34-1.85.69-2.75,1.08-.91.39-1.8.8-2.68,1.24s-1.74.91-2.6,1.4c-.85.5-1.68,1.02-2.5,1.56-.82.55-1.63,1.12-2.41,1.71-.79.59-1.55,1.21-2.3,1.85-.2.15-.41.3-.62.44-.09.04-.18.08-.28.1C66.94,0,49.7-3.59,31.16,3.85c-1.81.72-3.58,1.53-5.29,2.45-1.72.92-3.38,1.93-4.99,3.03-1.6,1.1-3.14,2.29-4.61,3.57-1.47,1.27-2.86,2.63-4.18,4.06C-1.13,31.85-.16,50.72.15,55.04c.39,2.85,1.01,5.64,1.84,8.39.83,2.74,1.87,5.4,3.13,7.98,1.33,2.62,2.86,5.1,4.59,7.47,1.74,2.36,3.65,4.57,5.74,6.63.5.46.86,1.02,1.07,1.67.05.35.12.69.21,1.03.08.34.18.68.29,1.01.12.33.25.66.39.98.14.32.3.63.46.94.17.31.36.61.55.9.2.29.4.57.62.84.22.28.46.54.7.79s.49.5.76.73c.26.23.54.45.82.65.28.21.57.41.87.59.3.18.61.35.92.5.32.16.64.3.97.42.32.13.66.24.99.34.34.1.68.18,1.02.25.35.07.69.12,1.04.16.35.04.7.06,1.05.07.22.04.44.08.66.14.66,7.59,4.76,11.85,12.64,12.54.09.63.2,1.29.28,1.96.03.32.08.65.15.98.06.32.14.64.23.96.09.32.2.63.31.94.12.31.25.61.4.91.14.3.3.59.47.87.16.29.34.56.54.83.19.27.39.53.61.78.21.25.43.5.67.73.23.23.48.45.73.66.26.22.52.42.79.61.27.18.55.36.83.53.29.16.58.32.88.46s.61.26.92.38c.31.11.62.22.94.3.32.09.64.17.96.23.33.06.66.1.99.14,1.52.15,2.05.61,2.22,2.23.02.27.05.54.09.81.04.27.1.54.16.81.06.26.13.52.21.78.08.27.17.52.27.78.1.25.2.5.32.75.12.24.24.48.38.72.13.24.28.47.43.7.15.22.31.44.48.66.17.21.34.42.53.62.18.2.37.4.57.58.2.19.4.37.61.54.21.18.43.34.65.5.23.15.46.3.69.44.23.14.47.27.72.4.24.12.49.23.74.34.25.1.51.19.77.28.27.11.54.21.82.3.28.09.56.17.84.24.29.06.58.12.87.17.28.04.57.08.87.11.29.02.58.03.87.04.29,0,.59-.01.88-.03.29-.01.58-.04.87-.08.29-.05.58-.1.87-.16.28-.06.56-.13.85-.22.28-.08.55-.17.83-.28.27-.1.54-.22.8-.34.27-.12.53-.26.78-.4.26-.15.51-.3.75-.46.24-.16.48-.34.71-.52.23-.18.46-.36.67-.56.22-.2.43-.4.63-.62,1.44-1.38,2.74-2.92,4.63-4.94,2.18,2.43,4.02,4.67,6.06,6.69.31.32.63.62.98.89.34.28.7.54,1.07.78.37.24.76.45,1.15.64.4.2.81.37,1.23.51.41.15.84.27,1.27.36.43.1.87.17,1.3.22.44.04.88.06,1.33.06.44-.01.88-.04,1.32-.09.32-.03.65-.08.98-.14.32-.06.64-.13.96-.22.32-.08.64-.18.95-.3.31-.11.61-.23.91-.37.3-.14.6-.29.89-.45.28-.16.56-.34.84-.52.27-.19.54-.38.79-.59.26-.21.51-.43.75-.65.24-.23.47-.47.68-.72.22-.24.43-.5.63-.76.2-.27.39-.54.56-.82.18-.28.34-.57.49-.86.15-.29.29-.59.42-.9.13-.3.24-.61.34-.93.1-.31.19-.63.27-.95.07-.32.13-.65.18-.97.11-.74.2-1.49.26-1.94,2.19-.53,4.31-1.23,6.39-2.1.44-.23.87-.48,1.28-.76.41-.28.8-.58,1.17-.92.37-.33.72-.68,1.04-1.06.33-.38.62-.78.89-1.19.27-.42.52-.85.73-1.3s.4-.91.55-1.39c.15-.47.27-.95.36-1.44.09-.49.15-.98.17-1.48.04-.16.09-.31.15-.45.07-.15.16-.28.26-.4.1-.13.22-.24.35-.33.12-.1.26-.18.41-.24,7.32-1.24,10.42-4.38,11.49-11.82.05-.2.11-.39.19-.57,1.37-.13,2.71-.42,4.01-.86l.35-.16c.79-.29,1.54-.66,2.26-1.09.13-.07.24-.14.36-.21.12-.07.24-.13.36-.21.07-.05.14-.11.2-.16.25-.17.49-.35.71-.55.73-.56,1.38-1.18,1.97-1.88.57-.72,1.07-1.47,1.5-2.28,2.42-2.72,5.12-5.17,7.61-7.82,1.75-1.77,3.35-3.67,4.79-5.7,1.43-2.03,2.7-4.17,3.78-6.41,1.22-2.46,2.24-5,3.07-7.62.84-2.61,1.47-5.28,1.89-7.99,2.3-15.71-6.75-30.97-7.38-32.01ZM32.22,89.55c-.13.12-.27.23-.41.34-.14.11-.29.21-.44.3-.15.1-.3.18-.46.26-.16.08-.32.15-.49.21s-.34.12-.51.17c-.17.04-.34.08-.52.11-.17.03-.35.05-.53.06-.17.02-.35.02-.53.02-.17,0-.35-.02-.53-.04-.17-.02-.35-.05-.52-.09-.17-.04-.35-.08-.52-.14-.16-.05-.33-.12-.49-.19-.17-.07-.32-.14-.48-.23-.16-.09-.31-.18-.45-.28-.15-.1-.29-.21-.43-.32l-.39-.36c-.13-.13-.26-.25-.38-.39-.12-.14-.23-.28-.34-.42-.1-.15-.2-.3-.3-.46-.09-.16-.17-.32-.24-.48-.08-.17-.15-.33-.21-.51-.05-.17-.1-.34-.14-.52-.05-.18-.08-.35-.1-.53-.02-.18-.04-.36-.04-.54,0-.19,0-.37.01-.55.01-.18.03-.36.06-.54.03-.18.07-.35.12-.53.05-.17.11-.34.17-.51.07-.17.14-.34.22-.5.08-.16.17-.32.27-.47.1-.15.2-.3.32-.44.11-.15.23-.28.35-.41,1.89-2.12,3.89-4.11,6.02-5.98,1.07-.72,2.22-1.29,3.44-1.7.29,0,.57.03.85.08.28.04.56.11.83.19.28.09.54.19.8.32.26.12.51.26.75.41.24.16.46.33.68.52.21.19.41.39.6.61.19.21.36.44.52.68.15.24.29.49.41.75.13.24.24.48.32.74.09.25.16.51.21.78.05.26.07.53.08.8,0,.27-.02.54-.05.8-.04.27-.1.53-.18.79-.08.26-.18.51-.3.75s-.25.47-.41.69c-.15.22-.33.43-.51.62-1.94,2.15-3.99,4.19-6.13,6.13ZM44.77,102.17h0c-.2.18-.41.36-.64.51-.23.16-.47.3-.72.41-.25.12-.51.22-.78.3-.26.08-.53.13-.81.17-.27.03-.55.05-.83.04-.27-.01-.55-.04-.82-.09-.27-.05-.54-.13-.8-.22s-.51-.2-.75-.34c-2.15-1-3.14-2.8-3.22-5.89.38-1.07.9-2.06,1.56-2.97,1.8-2.03,3.69-3.95,5.69-5.77.13-.13.27-.25.41-.36.14-.11.29-.22.44-.32.15-.1.31-.19.47-.27.16-.08.32-.16.49-.23.17-.07.34-.13.51-.18.17-.05.35-.1.53-.13.17-.04.35-.06.53-.08.18-.02.36-.03.54-.03.18-.01.36,0,.54.01.18.02.36.04.54.08.18.03.36.07.53.12.17.04.35.1.51.17.17.06.34.13.5.21.16.08.32.17.48.27.15.09.3.19.44.3.15.11.29.23.42.35.14.12.27.25.39.39.13.14.25.28.36.43.11.15.21.3.31.46.09.16.18.32.26.49.08.17.15.34.21.52.06.17.11.35.16.53.04.18.07.37.1.55.02.18.04.37.04.55.01.19.01.37-.01.56-.01.19-.03.37-.06.55-.03.19-.07.37-.12.55-.05.17-.11.35-.18.52-.07.18-.14.35-.23.51-.08.17-.17.33-.28.48-.1.16-.2.31-.32.45-.12.15-.24.29-.37.42-1.91,2.09-3.91,4.09-6.02,5.98ZM57.81,114.39c-.13.13-.26.26-.41.38-.14.12-.29.24-.45.34-.15.11-.31.21-.48.3-.16.09-.33.18-.51.25-.17.08-.35.14-.53.2s-.36.11-.55.15c-.18.03-.37.06-.56.09-.18.02-.37.03-.56.03s-.38-.01-.57-.02c-.19-.02-.37-.04-.56-.08-.18-.03-.37-.08-.55-.13-.18-.06-.36-.12-.53-.19-.18-.07-.35-.15-.52-.24-.16-.09-.33-.18-.49-.29-.15-.1-.31-.21-.45-.33-.15-.12-.29-.24-.42-.38-.14-.13-.26-.27-.38-.42-.12-.14-.23-.3-.34-.45-.1-.16-.2-.32-.29-.49-.09-.17-.16-.34-.24-.51-.07-.18-.13-.36-.18-.54-.06-.18-.1-.36-.13-.55-.04-.18-.06-.37-.08-.56-.02-.19-.02-.38-.02-.57,0-.18,0-.37.04-.56.02-.19.05-.37.09-.56.04-.18.09-.37.15-.55s.12-.35.2-.52c.08-.18.16-.35.25-.51.1-.16.2-.32.31-.48.11-.15.22-.3.35-.44.12-.15.25-.28.39-.41,1.78-1.86,3.58-3.71,5.48-5.45.19-.21.41-.4.63-.57.23-.17.47-.33.72-.46.25-.14.51-.25.78-.34.27-.1.54-.17.82-.22.28-.05.56-.08.85-.08.28-.01.56.01.85.05.28.03.55.1.83.18.27.08.53.19.79.31,2.25,1.02,3.23,2.87,3.45,5.95-.49,1.18-1.1,2.28-1.85,3.31-1.68,1.88-3.45,3.67-5.33,5.36ZM77.49,118.09c-.02.18-.04.35-.08.52-.03.18-.08.35-.13.52-.05.17-.11.33-.18.5-.07.16-.14.32-.22.48-.09.16-.18.31-.27.46-.1.14-.2.29-.31.43-.11.13-.23.27-.35.39-1.82,2-3.74,3.9-5.77,5.7-.97.69-2.02,1.24-3.15,1.64-.29.03-.58.03-.87.01-.29-.01-.57-.05-.86-.11-.28-.06-.56-.14-.83-.24-.28-.1-.54-.22-.79-.36-.26-.14-.5-.3-.73-.47-.24-.18-.45-.37-.66-.57-.2-.21-.39-.43-.56-.66-.17-.24-.33-.48-.46-.74-.14-.22-.25-.46-.35-.7-.1-.24-.18-.49-.24-.75-.06-.25-.1-.51-.12-.77-.02-.26-.01-.52.01-.78.02-.26.06-.52.12-.78.06-.25.14-.5.25-.74.1-.24.21-.48.35-.7.14-.22.29-.43.46-.63,2.05-2.39,4.27-4.61,6.65-6.67.13-.12.27-.22.42-.32.14-.11.29-.2.45-.29.15-.08.31-.16.48-.23.16-.08.32-.14.49-.19.17-.06.34-.1.52-.14.17-.04.35-.07.52-.09.18-.02.36-.03.53-.04.18,0,.36.01.54.02.17.02.35.04.52.07.18.03.35.07.52.12.17.05.34.11.51.17.16.07.32.14.48.22.16.08.31.17.46.27.15.09.29.2.43.31.14.11.28.23.4.35.13.12.25.25.37.39.12.13.23.26.34.4.11.15.21.29.3.44.09.15.18.31.26.47.08.15.15.32.21.48.07.17.12.33.17.51.05.17.09.34.12.51.03.18.05.35.07.53,0,.18.02.35,0,.53,0,.18,0,.35-.03.53ZM137.64,87.11c0,.2-.04.4-.07.6-.04.2-.08.39-.13.59-.06.19-.12.38-.2.57-.07.19-.16.37-.25.55-.1.17-.2.35-.32.51-.11.17-.23.33-.36.48-.13.16-.27.3-.42.44-.54.54-1.17.95-1.89,1.24l-.16.05c-.28.09-.58.15-.87.2-.3.04-.59.06-.89.06-.3.01-.6-.02-.89-.06-.3-.04-.59-.1-.88-.18-.28-.09-.56-.19-.84-.32-.27-.12-.53-.26-.78-.43-.25-.16-.49-.34-.72-.53-.22-.2-.43-.41-.63-.63-8.17-8.12-16.33-16.25-24.48-24.39-.26-.27-.51-.56-.8-.81-.07-.08-.15-.15-.24-.22-.08-.07-.17-.14-.26-.21-.09-.06-.18-.12-.28-.17-.1-.05-.2-.1-.3-.15-.1-.04-.2-.08-.31-.11-.1-.03-.21-.06-.32-.09-.11-.02-.22-.04-.33-.05-.11-.01-.21-.02-.33-.02-.11,0-.22.01-.33.02s-.22.02-.32.04c-.11.02-.22.05-.33.08-.1.03-.21.07-.31.11-.1.04-.2.09-.3.14-.1.05-.19.11-.28.17-.09.06-.18.13-.27.2-.08.07-.17.14-.24.22-.08.08-.14.16-.21.25-.06.08-.12.17-.18.26-.05.09-.1.19-.15.28-.04.1-.08.2-.12.3-.03.1-.06.2-.09.31-.02.1-.04.21-.06.31-.01.11-.02.22-.03.32,0,.11,0,.22.01.32,0,.11.01.22.03.32.02.11.04.21.07.31.03.11.06.21.1.31.04.1.08.2.13.29.04.1.1.19.15.28.06.09.12.18.19.27.06.08.13.16.21.24.07.07.15.15.23.22,2.23,2.31,4.54,4.54,6.81,6.81,6.33,6.31,12.67,12.61,18.96,18.97.22.21.42.45.6.7.18.24.34.51.47.78.14.28.25.56.34.86.09.29.16.59.2.89.04.31.06.62.05.92,0,.31-.04.62-.1.92-.06.3-.14.6-.24.88-.11.29-.24.57-.39.84-.15.26-.31.51-.5.75-.18.23-.39.45-.61.66-.22.2-.46.38-.71.55-.25.16-.52.3-.79.42-.28.12-.56.22-.85.29-.3.07-.59.12-.89.14-.3.03-.6.03-.9,0-.3-.02-.6-.07-.89-.15-.6-.17-1.16-.41-1.7-.72-.54-.32-1.03-.69-1.48-1.13-8.25-8.13-16.44-16.32-24.65-24.5-.34-.36-.71-.7-1.1-1.02-.14-.15-.31-.27-.48-.38-.17-.11-.36-.2-.55-.28-.19-.07-.39-.13-.59-.16-.2-.04-.41-.05-.61-.05-.21,0-.41.02-.61.07-.21.04-.4.1-.59.18-.19.08-.37.18-.54.29-.17.12-.33.25-.47.39-.08.08-.15.15-.22.23-.06.08-.13.16-.18.24-.06.09-.12.17-.17.26-.05.09-.09.19-.13.28-.04.1-.08.19-.11.29-.03.1-.05.2-.07.3-.02.1-.04.2-.05.3-.01.11-.01.21-.01.31s.01.21.02.31.02.2.05.3c.02.1.04.2.08.3.03.1.06.19.11.29.04.09.08.18.13.27.06.09.11.18.17.26.06.09.12.17.19.24.07.08.14.15.22.22,2.69,2.83,5.49,5.56,8.25,8.32,5.79,5.78,11.6,11.54,17.37,17.35.14.12.27.25.4.39.13.13.24.27.36.42.11.15.21.3.31.46.1.15.19.32.27.48.08.17.16.34.22.51.07.17.13.35.18.52.05.18.09.36.12.55.03.18.06.36.07.55.02.18.02.36.02.55,0,.18-.01.37-.04.55-.02.19-.04.37-.08.55-.04.18-.09.36-.14.54-.06.17-.12.35-.19.52s-.15.34-.24.5c-.09.16-.18.32-.29.47-.1.16-.21.31-.32.45-.13.15-.27.3-.41.43-.14.14-.29.27-.44.39-.16.12-.32.23-.49.34-.17.1-.34.2-.51.29-.18.08-.36.16-.55.23-.18.06-.37.12-.56.17-.19.05-.39.09-.58.11-.2.03-.39.05-.59.06-.2,0-.4,0-.59-.01-.2-.02-.39-.04-.59-.08-.19-.03-.39-.07-.57-.13-.19-.05-.38-.11-.56-.19-.19-.07-.37-.15-.54-.25-.17-.09-.34-.19-.51-.3-.16-.11-.32-.23-.47-.35-.15-.13-.3-.26-.43-.41-4.12-3.98-8.14-8.07-12.21-12.1-1.75-1.72-3.53-3.4-5.31-5.09-.24-.23-.49-.43-.76-.62l-9.88-9.88c-.07-.07-.14-.14-.22-.2-.08-.07-.16-.13-.25-.18-.08-.06-.17-.11-.26-.16-.09-.05-.18-.09-.27-.13-.09-.04-.19-.07-.28-.1-.1-.03-.2-.06-.3-.08-.1-.02-.2-.03-.3-.04-.1-.01-.2-.01-.3-.01s-.2,0-.3.01c-.1,0-.21.02-.3.04-.1.02-.2.05-.3.08-.09.03-.19.06-.28.1-.1.04-.19.08-.28.13-.09.05-.17.1-.26.16-.08.05-.16.11-.24.18-.08.06-.15.13-.22.2-.08.07-.14.15-.21.22-.06.08-.12.16-.18.25-.06.08-.11.17-.16.26-.04.09-.09.18-.12.27-.04.09-.08.19-.11.29-.03.09-.05.19-.07.29-.02.1-.03.2-.05.3,0,.1,0,.2,0,.3s0,.2,0,.31c.02.1.03.2.05.3.02.09.04.19.07.29.03.1.07.19.11.28.03.1.08.19.12.28.05.09.1.17.16.26.06.08.12.16.18.24s.13.16.2.23l9.83,9.82c.2.3.43.57.68.83,5.64,5.66,11.32,11.28,16.98,16.94.16.14.32.28.46.44.15.15.29.31.42.48.13.17.25.34.36.53.11.18.21.37.3.56.09.19.17.39.24.6.06.2.12.4.16.61.05.21.08.42.1.63.02.22.03.43.02.64,0,.21-.02.43-.04.64-.03.21-.07.42-.12.63-.05.2-.12.41-.19.61s-.16.39-.25.58c-.1.19-.21.38-.32.55-.12.18-.25.35-.38.52-.14.16-.28.32-.44.47-.15.15-.31.28-.48.41-.24.2-.49.38-.76.53-.26.15-.54.28-.83.39-.29.1-.59.18-.89.24-.3.05-.61.08-.92.09-.3,0-.61-.03-.91-.07-.31-.05-.61-.13-.9-.23-.29-.1-.57-.22-.84-.37-.27-.15-.53-.32-.77-.51-2.4-2.12-4.63-4.44-6.88-6.73-.16-.22-.27-.46-.33-.72-.06-.26-.06-.53,0-.79.06-.22.12-.45.17-.67.05-.23.09-.45.13-.68.04-.23.07-.45.09-.68.03-.23.05-.46.06-.69.01-.23.01-.46.01-.69s-.01-.46-.02-.69c-.02-.23-.04-.46-.06-.69-.03-.23-.07-.46-.11-.69-.04-.22-.08-.45-.14-.67-.05-.23-.11-.45-.18-.67-.06-.22-.14-.44-.21-.66-.08-.21-.17-.43-.26-.64-.09-.21-.19-.42-.29-.63-.1-.2-.21-.4-.32-.6-.12-.2-.24-.4-.36-.59-.13-.2-.26-.39-.4-.57-.13-.19-.27-.37-.42-.55-.15-.18-.3-.35-.46-.52-.15-.17-.31-.33-.48-.49-.16-.16-.33-.32-.51-.47-.17-.15-.35-.29-.54-.43-.18-.14-.36-.28-.56-.41-.19-.13-.38-.25-.58-.37-.2-.12-.4-.23-.6-.34-.2-.11-.41-.21-.62-.3-.21-.1-.42-.19-.64-.27-.21-.08-.43-.16-.65-.23-.22-.07-.44-.14-.66-.19-.23-.06-.45-.11-.68-.16-.22-.04-.45-.08-.68-.12-.22-.03-.45-.05-.68-.07-.23-.02-.46-.04-.69-.04-.23-.04-.46-.09-.68-.16-.61-7.62-4.81-11.81-12.58-12.52-.68-7.63-4.81-11.87-12.38-12.54-.36-1.84-.87-3.63-1.54-5.38-.1-.22-.2-.44-.31-.65-.11-.21-.23-.42-.35-.62-.12-.21-.25-.41-.38-.61-.14-.19-.28-.39-.42-.57-.15-.19-.3-.38-.45-.56-.16-.18-.32-.35-.49-.52s-.34-.34-.52-.5c-.17-.16-.36-.31-.54-.46-.19-.15-.38-.29-.57-.43-.2-.14-.4-.27-.6-.39-.2-.13-.41-.25-.62-.36-.21-.11-.42-.22-.64-.32-.21-.1-.43-.2-.66-.28-.22-.09-.44-.17-.67-.24-.22-.08-.45-.15-.68-.21-.24-.06-.47-.11-.7-.16-.24-.04-.47-.08-.71-.11-.23-.04-.47-.06-.71-.08-.24-.02-.47-.03-.71-.03-.24-.01-.48,0-.72.01-.23.01-.47.03-.71.05-.24.03-.47.06-.71.1-.23.03-.47.08-.7.13-.23.06-.46.12-.69.18-.23.07-.46.14-.68.22-.23.08-.45.17-.67.26-.22.1-.43.2-.65.3-.21.11-.42.22-.63.34-.2.12-.41.25-.61.38-.19.13-.39.27-.58.41s-.38.29-.56.44c-.18.16-.36.32-.53.48-2.68,2.38-5.3,4.83-8.15,7.44-.52-.54-1.02-1.09-1.5-1.66-.48-.57-.95-1.15-1.4-1.74-.45-.59-.89-1.2-1.31-1.81-.42-.62-.82-1.25-1.2-1.89s-.75-1.28-1.1-1.94c-.35-.66-.68-1.33-.99-2.01-.31-.67-.6-1.36-.87-2.05-.28-.7-.53-1.4-.77-2.1-.23-.71-.45-1.42-.64-2.14-.2-.72-.38-1.45-.53-2.17-.16-.73-.29-1.47-.41-2.2-.12-.74-.21-1.48-.29-2.22-.07-.74-.13-1.48-.16-2.23-.04-.74-.05-1.49-.04-2.23,0-.75.03-1.49.08-2.24.05-.74.11-1.48.2-2.22,2.07-18.47,12.26-31.01,29.81-36.98.87-.29,1.75-.55,2.63-.78.89-.24,1.79-.44,2.69-.62.9-.17,1.8-.32,2.71-.43.91-.12,1.83-.2,2.74-.26.92-.05,1.83-.07,2.75-.07.92.01,1.83.04,2.75.11.91.07,1.83.16,2.73.29.91.13,1.82.28,2.71.47.9.19,1.79.4,2.68.65.88.24,1.76.52,2.62.82.87.3,1.72.63,2.57.99.84.36,1.67.75,2.49,1.17.82.41,1.62.85,2.41,1.32.79.47,1.56.96,2.32,1.48.76.52,1.5,1.06,2.22,1.63.72.56,1.42,1.15,2.1,1.77-5,4.99-9.91,9.88-14.79,14.77-1.96,1.96-3.98,3.88-5.76,5.99-.26.32-.52.66-.75,1.01-.24.35-.46.71-.66,1.08s-.39.74-.56,1.13-.32.78-.45,1.18c-.13.4-.24.8-.34,1.22-.09.41-.16.82-.22,1.24-.05.42-.09.83-.11,1.25-.01.43-.01.85.01,1.27.03.42.07.84.13,1.25.06.42.15.83.25,1.24.1.41.21.81.35,1.21.14.4.3.79.47,1.17.17.39.37.76.57,1.13.21.36.44.72.68,1.06.24.35.5.68.77,1,.28.32.56.63.87.92.3.3.61.58.94.85.32.26.66.51,1.01.75.35.23.71.45,1.08.65s.75.39,1.13.55c.39.17.78.32,1.18.45s.81.24,1.22.34c.41.09.82.17,1.24.22.42.06.84.09,1.26.11.42.02.84.01,1.26-.01.42-.02.84-.06,1.26-.12.41-.06.83-.14,1.24-.24.41-.1.81-.21,1.21-.35.4-.13.79-.29,1.17-.46.39-.17.76-.36,1.13-.56.37-.21.73-.43,1.07-.67.35-.24.69-.49,1.01-.76,2.26-1.98,11.3-10.84,17.13-16.51,11.79,11.73,32.65,32.55,41.88,41.79.16.13.31.26.46.4.14.14.28.29.41.45.12.15.24.32.35.48.11.17.22.35.31.53.09.18.17.36.24.55.08.19.14.38.19.57.05.2.09.39.12.59.03.2.05.4.06.6.01.21.01.41,0,.61ZM158.29,52.51c-.17,1.79-.44,3.56-.81,5.31-.37,1.76-.84,3.48-1.42,5.18-.57,1.7-1.24,3.36-2.01,4.98s-1.63,3.19-2.59,4.71c-1.12,1.71-2.34,3.36-3.65,4.94-1.3,1.57-2.63,3.09-3.83,4.59-1.77-1.85-3.46-3.63-5.13-5.38,0,0-2.38-2.47-4.97-5.13-3.71-3.8-19.16-19.24-40.27-40.15-4.03,4.04-18.02,17.67-20.79,20.28-.16.15-.32.29-.48.42-.17.14-.34.26-.51.38-.18.12-.36.23-.55.33-.18.11-.37.2-.57.29-.19.08-.39.16-.59.23s-.41.13-.61.18c-.21.05-.42.09-.63.12-.21.04-.42.06-.63.07-.21.02-.43.02-.64.02-.21-.01-.42-.02-.64-.04-.21-.03-.42-.06-.63-.1-.2-.04-.41-.09-.62-.15-.2-.06-.4-.13-.6-.21-.2-.08-.39-.16-.58-.26-.19-.09-.38-.2-.56-.31-.18-.11-.36-.23-.53-.35-.11-.08-.22-.16-.32-.25-.11-.08-.21-.17-.32-.26-.1-.09-.2-.18-.29-.28-.1-.1-.19-.19-.29-.3-.09-.1-.17-.2-.26-.31-.08-.1-.17-.21-.25-.32s-.15-.22-.22-.34c-.08-.11-.15-.23-.21-.35-.07-.12-.13-.24-.19-.36s-.12-.25-.17-.37c-.05-.13-.1-.25-.15-.38s-.09-.26-.13-.39c-.03-.13-.07-.26-.1-.4-.03-.13-.06-.26-.08-.39-.03-.14-.05-.27-.06-.41-.02-.13-.03-.27-.04-.4-.01-.14-.02-.28-.02-.41,0-.14,0-.27.01-.41,0-.14.02-.27.03-.41.01-.13.03-.27.05-.4.02-.14.05-.27.08-.4.02-.14.06-.27.09-.4.04-.13.08-.26.12-.39s.09-.26.14-.38c.05-.13.11-.25.16-.38l.18-.36c.07-.12.14-.24.21-.36.07-.11.14-.23.22-.34.08-.11.16-.22.24-.33.08-.11.17-.21.26-.32.09-.1.18-.2.27-.3.1-.1.19-.19.29-.28,5.94-5.99,11.97-11.9,17.91-17.88,1.95-2.19,4.06-4.21,6.33-6.08,2.26-1.86,4.66-3.54,7.18-5.03,1.57-.86,3.19-1.63,4.85-2.29,1.67-.67,3.36-1.23,5.09-1.7,1.73-.46,3.49-.82,5.26-1.07,1.77-.26,3.56-.4,5.35-.44,1.76.05,3.52.18,5.26.41,1.75.23,3.49.55,5.2.96,1.72.41,3.41.9,5.07,1.48,1.67.58,3.3,1.25,4.9,1.99,2.37,1.07,4.59,2.4,6.65,3.99,1.58,1.25,3.05,2.62,4.42,4.09,1.38,1.44,2.64,2.98,3.77,4.61,1.26,1.87,2.4,3.8,3.4,5.81.93,1.72,1.73,3.5,2.41,5.33.67,1.84,1.22,3.71,1.64,5.62.42,1.91.7,3.84.85,5.79.15,1.94.17,3.89.05,5.84Z"/>
      <path class="cls-2" d="M137.64,86.5c.01.21.01.41,0,.61,0,.2-.04.4-.07.6-.04.2-.08.39-.13.59-.06.19-.12.38-.2.57-.07.19-.16.37-.25.55-.1.17-.2.35-.32.51-.11.17-.23.33-.36.48-.13.16-.27.3-.42.44-.54.54-1.17.95-1.89,1.24l-.16.05c-.28.09-.58.15-.87.2-.3.04-.59.06-.89.06-.3.01-.6-.02-.89-.06-.3-.04-.59-.1-.88-.18-.28-.09-.56-.19-.84-.32-.27-.12-.53-.26-.78-.43-.25-.16-.49-.34-.72-.53-.22-.2-.43-.41-.63-.63-8.17-8.12-16.33-16.25-24.48-24.39-.26-.27-.51-.56-.8-.81-.07-.08-.15-.15-.24-.22-.08-.07-.17-.14-.26-.21-.09-.06-.18-.12-.28-.17-.1-.05-.2-.1-.3-.15-.1-.04-.2-.08-.31-.11-.1-.03-.21-.06-.32-.09-.11-.02-.22-.04-.33-.05-.11-.01-.21-.02-.33-.02-.11,0-.22.01-.33.02s-.22.02-.32.04c-.11.02-.22.05-.33.08-.1.03-.21.07-.31.11-.1.04-.2.09-.3.14-.1.05-.19.11-.28.17-.09.06-.18.13-.27.2-.08.07-.17.14-.24.22-.08.08-.14.16-.21.25-.06.08-.12.17-.18.26-.05.09-.1.19-.15.28-.04.1-.08.2-.12.3-.03.1-.06.2-.09.31-.02.1-.04.21-.06.31-.01.11-.02.22-.03.32,0,.11,0,.22.01.32,0,.11.01.22.03.32.02.11.04.21.07.31.03.11.06.21.1.31.04.1.08.2.13.29.04.1.1.19.15.28.06.09.12.18.19.27.06.08.13.16.21.24.07.07.15.15.23.22,2.23,2.31,4.54,4.54,6.81,6.81,6.33,6.31,12.67,12.61,18.96,18.97.22.21.42.45.6.7.18.24.34.51.47.78.14.28.25.56.34.86.09.29.16.59.2.89.04.31.06.62.05.92,0,.31-.04.62-.1.92-.06.3-.14.6-.24.88-.11.29-.24.57-.39.84-.15.26-.31.51-.5.75-.18.23-.39.45-.61.66-.22.2-.46.38-.71.55-.25.16-.52.3-.79.42-.28.12-.56.22-.85.29-.3.07-.59.12-.89.14-.3.03-.6.03-.9,0-.3-.02-.6-.07-.89-.15-.6-.17-1.16-.41-1.7-.72-.54-.32-1.03-.69-1.48-1.13-8.25-8.13-16.44-16.32-24.65-24.5-.34-.36-.71-.7-1.1-1.02-.14-.15-.31-.27-.48-.38-.17-.11-.36-.2-.55-.28-.19-.07-.39-.13-.59-.16-.2-.04-.41-.05-.61-.05-.21,0-.41.02-.61.07-.21.04-.4.1-.59.18-.19.08-.37.18-.54.29-.17.12-.33.25-.47.39-.08.08-.15.15-.22.23-.06.08-.13.16-.18.24-.06.09-.12.17-.17.26-.05.09-.09.19-.13.28-.04.1-.08.19-.11.29-.03.1-.05.2-.07.3-.02.1-.04.2-.05.3-.01.11-.01.21-.01.31s.01.21.02.31.02.2.05.3c.02.1.04.2.08.3.03.1.06.19.11.29.04.09.08.18.13.27.06.09.11.18.17.26.06.09.12.17.19.24.07.08.14.15.22.22,2.69,2.83,5.49,5.56,8.25,8.32,5.79,5.78,11.6,11.54,17.37,17.35.14.12.27.25.4.39.13.13.24.27.36.42.11.15.21.3.31.46.1.15.19.32.27.48.08.17.16.34.22.51.07.17.13.35.18.52.05.18.09.36.12.55.03.18.06.36.07.55.02.18.02.36.02.55,0,.18-.01.37-.04.55-.02.19-.04.37-.08.55-.04.18-.09.36-.14.54-.06.17-.12.35-.19.52s-.15.34-.24.5c-.09.16-.18.32-.29.47-.1.16-.21.31-.32.45-.13.15-.27.3-.41.43-.14.14-.29.27-.44.39-.16.12-.32.23-.49.34-.17.1-.34.2-.51.29-.18.08-.36.16-.55.23-.18.06-.37.12-.56.17-.19.05-.39.09-.58.11-.2.03-.39.05-.59.06-.2,0-.4,0-.59-.01-.2-.02-.39-.04-.59-.08-.19-.03-.39-.07-.57-.13-.19-.05-.38-.11-.56-.19-.19-.07-.37-.15-.54-.25-.17-.09-.34-.19-.51-.3-.16-.11-.32-.23-.47-.35-.15-.13-.3-.26-.43-.41-4.12-3.98-8.14-8.07-12.21-12.1-1.75-1.72-3.53-3.4-5.31-5.09-.24-.23-.49-.43-.76-.62l-9.88-9.88c-.07-.07-.14-.14-.22-.2-.08-.07-.16-.13-.25-.18-.08-.06-.17-.11-.26-.16-.09-.05-.18-.09-.27-.13-.09-.04-.19-.07-.28-.1-.1-.03-.2-.06-.3-.08-.1-.02-.2-.03-.3-.04-.1-.01-.2-.01-.3-.01s-.2,0-.3.01c-.1,0-.21.02-.3.04-.1.02-.2.05-.3.08-.09.03-.19.06-.28.1-.1.04-.19.08-.28.13-.09.05-.17.1-.26.16-.08.05-.16.11-.24.18-.08.06-.15.13-.22.2-.08.07-.14.15-.21.22-.06.08-.12.16-.18.25-.06.08-.11.17-.16.26-.04.09-.09.18-.12.27-.04.09-.08.19-.11.29-.03.09-.05.19-.07.29-.02.1-.03.2-.05.3,0,.1,0,.2,0,.3s0,.2,0,.31c.02.1.03.2.05.3.02.09.04.19.07.29.03.1.07.19.11.28.03.1.08.19.12.28.05.09.1.17.16.26.06.08.12.16.18.24s.13.16.2.23l9.83,9.82c.2.3.43.57.68.83,5.64,5.66,11.32,11.28,16.98,16.94.16.14.32.28.46.44.15.15.29.31.42.48.13.17.25.34.36.53.11.18.21.37.3.56.09.19.17.39.24.6.06.2.12.4.16.61.05.21.08.42.1.63.02.22.03.43.02.64,0,.21-.02.43-.04.64-.03.21-.07.42-.12.63-.05.2-.12.41-.19.61s-.16.39-.25.58c-.1.19-.21.38-.32.55-.12.18-.25.35-.38.52-.14.16-.28.32-.44.47-.15.15-.31.28-.48.41-.24.2-.49.38-.76.53-.26.15-.54.28-.83.39-.29.1-.59.18-.89.24-.3.05-.61.08-.92.09-.3,0-.61-.03-.91-.07-.31-.05-.61-.13-.9-.23-.29-.1-.57-.22-.84-.37-.27-.15-.53-.32-.77-.51-2.4-2.12-4.63-4.44-6.88-6.73-.16-.22-.27-.46-.33-.72-.06-.26-.06-.53,0-.79.06-.22.12-.45.17-.67.05-.23.09-.45.13-.68.04-.23.07-.45.09-.68.03-.23.05-.46.06-.69.01-.23.01-.46.01-.69s-.01-.46-.02-.69c-.02-.23-.04-.46-.06-.69-.03-.23-.07-.46-.11-.69-.04-.22-.08-.45-.14-.67-.05-.23-.11-.45-.18-.67-.06-.22-.14-.44-.21-.66-.08-.21-.17-.43-.26-.64-.09-.21-.19-.42-.29-.63-.1-.2-.21-.4-.32-.6-.12-.2-.24-.4-.36-.59-.13-.2-.26-.39-.4-.57-.13-.19-.27-.37-.42-.55-.15-.18-.3-.35-.46-.52-.15-.17-.31-.33-.48-.49-.16-.16-.33-.32-.51-.47-.17-.15-.35-.29-.54-.43-.18-.14-.36-.28-.56-.41-.19-.13-.38-.25-.58-.37-.2-.12-.4-.23-.6-.34-.2-.11-.41-.21-.62-.3-.21-.1-.42-.19-.64-.27-.21-.08-.43-.16-.65-.23-.22-.07-.44-.14-.66-.19-.23-.06-.45-.11-.68-.16-.22-.04-.45-.08-.68-.12-.22-.03-.45-.05-.68-.07-.23-.02-.46-.04-.69-.04-.23-.04-.46-.09-.68-.16-.61-7.62-4.81-11.81-12.58-12.52-.68-7.63-4.81-11.87-12.38-12.54-.36-1.84-.87-3.63-1.54-5.38-.1-.22-.2-.44-.31-.65-.11-.21-.23-.42-.35-.62-.12-.21-.25-.41-.38-.61-.14-.19-.28-.39-.42-.57-.15-.19-.3-.38-.45-.56-.16-.18-.32-.35-.49-.52s-.34-.34-.52-.5c-.17-.16-.36-.31-.54-.46-.19-.15-.38-.29-.57-.43-.2-.14-.4-.27-.6-.39-.2-.13-.41-.25-.62-.36-.21-.11-.42-.22-.64-.32-.21-.1-.43-.2-.66-.28-.22-.09-.44-.17-.67-.24-.22-.08-.45-.15-.68-.21-.24-.06-.47-.11-.7-.16-.24-.04-.47-.08-.71-.11-.23-.04-.47-.06-.71-.08-.24-.02-.47-.03-.71-.03-.24-.01-.48,0-.72.01-.23.01-.47.03-.71.05-.24.03-.47.06-.71.1-.23.03-.47.08-.7.13-.23.06-.46.12-.69.18-.23.07-.46.14-.68.22-.23.08-.45.17-.67.26-.22.1-.43.2-.65.3-.21.11-.42.22-.63.34-.2.12-.41.25-.61.38-.19.13-.39.27-.58.41s-.38.29-.56.44c-.18.16-.36.32-.53.48-2.68,2.38-5.3,4.83-8.15,7.44-.52-.54-1.02-1.09-1.5-1.66-.48-.57-.95-1.15-1.4-1.74-.45-.59-.89-1.2-1.31-1.81-.42-.62-.82-1.25-1.2-1.89s-.75-1.28-1.1-1.94c-.35-.66-.68-1.33-.99-2.01-.31-.67-.6-1.36-.87-2.05-.28-.7-.53-1.4-.77-2.1-.23-.71-.45-1.42-.64-2.14-.2-.72-.38-1.45-.53-2.17-.16-.73-.29-1.47-.41-2.2-.12-.74-.21-1.48-.29-2.22-.07-.74-.13-1.48-.16-2.23-.04-.74-.05-1.49-.04-2.23,0-.75.03-1.49.08-2.24.05-.74.11-1.48.2-2.22,2.07-18.47,12.26-31.01,29.81-36.98.87-.29,1.75-.55,2.63-.78.89-.24,1.79-.44,2.69-.62.9-.17,1.8-.32,2.71-.43.91-.12,1.83-.2,2.74-.26.92-.05,1.83-.07,2.75-.07.92.01,1.83.04,2.75.11.91.07,1.83.16,2.73.29.91.13,1.82.28,2.71.47.9.19,1.79.4,2.68.65.88.24,1.76.52,2.62.82.87.3,1.72.63,2.57.99.84.36,1.67.75,2.49,1.17.82.41,1.62.85,2.41,1.32.79.47,1.56.96,2.32,1.48.76.52,1.5,1.06,2.22,1.63.72.56,1.42,1.15,2.1,1.77-5,4.99-9.91,9.88-14.79,14.77-1.96,1.96-3.98,3.88-5.76,5.99-.26.32-.52.66-.75,1.01-.24.35-.46.71-.66,1.08s-.39.74-.56,1.13-.32.78-.45,1.18c-.13.4-.24.8-.34,1.22-.09.41-.16.82-.22,1.24-.05.42-.09.83-.11,1.25-.01.43-.01.85.01,1.27.03.42.07.84.13,1.25.06.42.15.83.25,1.24.1.41.21.81.35,1.21.14.4.3.79.47,1.17.17.39.37.76.57,1.13.21.36.44.72.68,1.06.24.35.5.68.77,1,.28.32.56.63.87.92.3.3.61.58.94.85.32.26.66.51,1.01.75.35.23.71.45,1.08.65s.75.39,1.13.55c.39.17.78.32,1.18.45s.81.24,1.22.34c.41.09.82.17,1.24.22.42.06.84.09,1.26.11.42.02.84.01,1.26-.01.42-.02.84-.06,1.26-.12.41-.06.83-.14,1.24-.24.41-.1.81-.21,1.21-.35.4-.13.79-.29,1.17-.46.39-.17.76-.36,1.13-.56.37-.21.73-.43,1.07-.67.35-.24.69-.49,1.01-.76,2.26-1.98,11.3-10.84,17.13-16.51,11.79,11.73,32.65,32.55,41.88,41.79.16.13.31.26.46.4.14.14.28.29.41.45.12.15.24.32.35.48.11.17.22.35.31.53.09.18.17.36.24.55.08.19.14.38.19.57.05.2.09.39.12.59.03.2.05.4.06.6Z"/>
    </g>
  </g>
</svg>